<svg id="Layer_1" data-name="Layer 1" xmlns="http://www.w3.org/2000/svg" viewBox="0 0 59.38 59.38"><defs><style>.cls-1{fill:#2981c4;}.cls-2{fill:#fff;}</style></defs><circle class="cls-1" cx="29.69" cy="29.69" r="29.69"/><path class="cls-2" d="M349.46,98.75a2.25,2.25,0,0,0-1.58-.63H320.35a2.29,2.29,0,0,0-1.58.63l15.35,13.16Z" transform="translate(-304.43 -79.92)"/><path class="cls-2" d="M350.19,117.74V101.68l-12.1,10.59h0l-.82.72-2.08,1.82h0l-1.08.95-1.5-1.32h0l-1.13-1-1.35-1.19h0L318,101.69v17.26h0a2.32,2.32,0,0,0,.73,1.51h0a2.27,2.27,0,0,0,1.58.63h27.53a2.33,2.33,0,0,0,2.33-2.33V118A2.32,2.32,0,0,0,350.19,117.74Z" transform="translate(-304.43 -79.92)"/></svg>