<!-- Generator: Adobe Illustrator 19.2.0, SVG Export Plug-In  -->
<svg version="1.1"
	 xmlns="http://www.w3.org/2000/svg" xmlns:xlink="http://www.w3.org/1999/xlink" xmlns:a="http://ns.adobe.com/AdobeSVGViewerExtensions/3.0/"
	 x="0px" y="0px" width="414.246px" height="42.299px" viewBox="0 0 414.246 42.299"
	 style="enable-background:new 0 0 414.246 42.299;" xml:space="preserve">
<style type="text/css">
	.st0{fill:#FFFFFF;}
</style>
<defs>
</defs>
<path class="st0" d="M384.159,32.241h18.599l-1.507,10.058h-37.537l24.232-32.991h-16.233L373.019,0h34.829L384.159,32.241z
	 M357.836,0l-3.774,27.809C353.735,26.078,342.692,0,342.692,0h-12.865l-6.507,41.87L314.356,0h-14.064L280.27,39.928l-8.76-14.277
	c3.565-0.658,6.496-2.171,8.649-4.442c1.952-2.387,3.041-5.309,3.041-8.868c0-2.497-0.548-4.657-1.628-6.491
	c-1.089-1.847-2.704-3.246-4.86-4.221c-1.209-0.54-2.609-0.975-4.344-1.19C270.738,0.112,268.273,0,264.802,0h-11.14l-6.704,42.299
	h11.236l2.484-16.115l8.238,16.115h22.384l4.121-8.007h14.819l1.621,8.007h22.617l3.667-28.444
	c0.227,1.078,11.914,28.444,11.914,28.444h12.44L369.099,0H357.836z M265.343,19.369h-3.566l1.838-11.146h1.618
	c2.477,0,4.224,0.432,5.414,1.304c1.073,0.755,1.618,2.05,1.618,3.893c0,1.839-0.544,3.356-1.721,4.436
	C269.24,18.822,267.503,19.369,265.343,19.369z M299.638,24.882c0,0,6.063-13.512,6.387-14.599c0,0.65,2.59,14.599,2.59,14.599
	H299.638z M251.193,0h-29.769l-1.615,9.845h9.931l-5.194,32.455h11.357l5.191-32.455h8.471L251.193,0z M147.058,22.718
	c-1.621-1.946-4.004-2.912-7.032-3.129c2.707-0.766,4.64-1.833,5.839-3.239c1.297-1.417,1.832-3.365,1.832-5.745
	c0-1.95-0.428-3.568-1.183-4.973c-0.873-1.522-2.059-2.702-3.573-3.586c-1.404-0.747-3.035-1.281-4.87-1.507
	C136.13,0.219,132.781,0,128.018,0h-11.587v42.299h11.908c4.863,0,8.225-0.217,10.384-0.534c2.173-0.324,3.894-0.862,5.408-1.629
	c1.735-0.968,3.139-2.27,4.105-3.999c0.865-1.733,1.303-3.67,1.303-5.946C149.539,27.056,148.793,24.567,147.058,22.718z
	 M127.142,8.447h2.384c2.918,0,4.869,0.321,5.952,0.968c0.973,0.651,1.407,1.731,1.407,3.353c0,1.518-0.545,2.602-1.624,3.244
	c-0.97,0.545-3.038,0.865-5.845,0.865h-2.273V8.447z M136.992,32.671c-1.196,0.655-3.141,0.984-5.839,0.984h-4.011v-9.202h4.221
	c2.818,0,4.656,0.326,5.729,1.08c1.089,0.651,1.63,1.841,1.63,3.675C138.723,30.832,138.071,31.916,136.992,32.671z M57.026,0
	H45.552v42.299h25.856V30.832H57.026V0z M206.529,32.468V0h-11.568v42.299h25.856v-9.832H206.529z M177.702,0h-14.395
	l-14.612,42.299h11.484l2.27-7.564h16.33l2.163,7.564h11.36L177.702,0z M164.925,26.511l5.625-19.58l5.748,19.58H164.925z
	 M20.885,17.896v8.478H31.85c-0.305,2.275-1.342,4.142-3.197,5.489c-1.864,1.329-4.246,2.063-7.041,2.063
	c-3.307,0-5.895-1.144-7.752-3.317c-1.962-2.271-2.889-5.262-2.889-9.094c0-3.826,0.928-6.826,2.889-8.998
	c1.857-2.175,4.445-3.308,7.752-3.308c1.757,0,3.417,0.408,4.869,1.133c1.342,0.834,2.69,1.965,3.822,3.525l9.516-4.557
	c-2.072-3.099-4.649-5.477-7.665-7.038c-3.089-1.553-6.613-2.266-10.542-2.266c-3.103,0-5.781,0.511-8.469,1.446
	c-2.6,1.036-4.97,2.481-6.935,4.444c-2.071,2.067-3.618,4.342-4.655,6.928C0.522,15.312,0,18.099,0,21.103
	c0,2.891,0.522,5.685,1.66,8.272c1.033,2.682,2.477,4.957,4.451,6.822c1.958,2.072,4.228,3.521,6.821,4.553
	c2.48,1.033,5.479,1.55,8.68,1.55c6.724,0,11.788-1.958,15.519-5.796c3.616-3.931,5.476-9.305,5.476-16.234v-1.45
	c0-0.301,0-0.617-0.107-0.924H20.885z M112.083,12.496c-0.7-1.506-1.495-2.999-2.594-4.299c-0.596-0.797-1.196-1.496-1.896-2.197
	c-1.988-1.997-4.286-3.381-6.776-4.48c-2.597-0.994-5.285-1.49-7.969-1.49c-2.794,0-5.502,0.496-7.994,1.49
	c-2.581,1.099-4.776,2.484-6.773,4.48c-1.994,1.907-3.492,4.098-4.487,6.585c-1.095,2.386-1.695,4.988-1.695,7.781
	c0,0.202,0,0.399,0.1,0.691v0.105c-0.1,0.208-0.1,0.498-0.1,0.699c0,2.788,0.6,5.388,1.695,7.869
	c0.996,2.508,2.494,4.687,4.487,6.589c1.997,1.995,4.192,3.49,6.773,4.487c2.493,0.997,5.2,1.495,7.994,1.495
	c2.685,0,5.372-0.498,7.866-1.495c2.593-0.997,4.891-2.492,6.879-4.487c1.896-1.902,3.394-4.081,4.49-6.589
	c0.995-2.387,1.491-5.082,1.491-7.869v-0.491v-0.208v-0.796C113.574,17.572,113.078,14.971,112.083,12.496z M92.847,31.625
	c-5.816,0-10.52-4.708-10.52-10.511c0-5.79,4.704-10.504,10.52-10.504c5.794,0,10.495,4.714,10.495,10.504
	C103.343,26.918,98.641,31.625,92.847,31.625z M409.301,32.226h-0.017c-2.734,0-4.979,2.228-4.979,5.025
	c0,2.84,2.245,5.049,4.979,5.049c2.766,0,4.962-2.209,4.962-5.049C414.246,34.454,412.05,32.226,409.301,32.226z M409.301,41.524
	c-2.223,0-4.038-1.883-4.038-4.273c0-2.348,1.815-4.246,4.022-4.246h0.017c2.239,0,4.025,1.898,4.025,4.269
	C413.326,39.641,411.54,41.538,409.301,41.524z M411.13,38.795c-0.097-0.84-0.434-1.284-0.931-1.36v-0.05
	c0.612-0.184,1.09-0.628,1.09-1.369c0-0.528-0.177-0.909-0.51-1.163c-0.33-0.247-0.888-0.418-1.731-0.418
	c-0.673,0-1.125,0.06-1.59,0.137v5.592h0.885v-2.397h0.628c0.719,0,1.072,0.257,1.211,0.972c0.104,0.741,0.236,1.245,0.372,1.424
	h0.94C411.408,39.985,411.276,39.657,411.13,38.795z M408.992,37.075h-0.649v-1.898c0.157-0.023,0.371-0.057,0.649-0.057
	c1.01,0,1.364,0.498,1.364,0.993C410.356,36.799,409.735,37.075,408.992,37.075z"/>
</svg>